<svg version="1.1" id="Layer_1" xmlns="http://www.w3.org/2000/svg" xmlns:xlink="http://www.w3.org/1999/xlink" x="0px" y="0px" viewBox="0 0 525.1 129" style="enable-background:new 0 0 525.1 129;" xml:space="preserve">
<style type="text/css">
	.st0{fill-rule:evenodd;clip-rule:evenodd;fill:#F19521;}
	.st1{fill-rule:evenodd;clip-rule:evenodd;fill:#FFFFFF;}
	.st2{fill-rule:evenodd;clip-rule:evenodd;fill:#FFFFFF;stroke:#231F20;stroke-width:2;}
	.st3{fill:none;stroke:#231F20;stroke-width:2;}
	.st4{fill:#333;}
	.st5{display:none;fill:#333;enable-background:new    ;}
	.st6{font-family:'Roboto-Regular';}
	.st7{font-size:33px;}
	.st8{enable-background:new    ;}
</style>
<path class="st0" d="M56.6,129c31.1,0,56.6-25.4,56.6-56.6S87.8,15.8,56.6,15.8S0,41.3,0,72.4C0,103.6,25.4,129,56.6,129z"/>
<path class="st1" d="M15.8,111.8c-8.4-8.6-14-19.9-15.5-32.4c4.1-0.7,8.5-2.1,15.1-10.4l27.3-48.5C36,50.1,14.3,83,15.8,111.8z"/>
<path class="st2" d="M75.1,0.4c-7.9,20.4-52.9,126.3,0.3,107.5c-57.9,26.3-45.1-11.7-37-35.1C52.2,35,63.5,26.7,75.1,0.4z"/>
<path class="st3" d="M11.3,89.1c23.3-7,141.7-18.5,101.1-52.4c49.3,40.2,9.5,45.6-15,48.7C57.3,89.8,40,87.8,11.3,89.1z"/>
<g>
	<path class="st4" d="M176.9,68.9h-6.8V23.4H151V18h44.6v5.4h-18.8L176.9,68.9L176.9,68.9z"/>
	<path class="st4" d="M205,43.5c0-4.9,1.6-7.9,4.7-8.8c3.1-1,7-1.5,11.6-1.5c5.6,0,10,0.7,13.1,2.1c3.1,1.4,4.6,4.8,4.6,10.4v23.1   h-5.7l0.3-3.7c-1.7,1.9-3.8,3.1-6.2,3.6s-4.9,0.7-7.6,0.7c-5,0-9-0.7-11.9-1.9c-2.9-1.3-4.3-4.4-4.3-9.3c0-4.7,1.5-7.7,4.5-8.9   s6.9-1.8,11.5-1.8c0.7,0,1.4,0,2.2,0c0.7,0,1.5,0.1,2.2,0.1c1,0.1,2,0.2,3,0.4s1.9,0.4,2.8,0.7c0.7,0.2,1.2,0.5,1.7,1   c0.5,0.4,0.9,0.9,1.2,1.5v-4.3c0-4.4-0.7-7.1-2.1-8.2c-1.4-1.1-4.6-1.6-9.7-1.6c-0.5,0-1.1,0-1.7,0c-0.6,0-1.2,0.1-1.8,0.1   c-0.8,0-1.6,0.2-2.4,0.4c-0.8,0.2-1.4,0.5-1.9,0.8c-0.6,0.4-1,0.8-1.3,1.3c-0.2,0.5-0.4,1.1-0.4,1.7c-0.1,0.2-0.1,0.3-0.1,0.5   s0,0.3,0,0.5s0,0.3,0,0.5s0,0.4,0.1,0.6L205,43.5L205,43.5z M212.1,63.7c1.5,1,3.9,1.5,7.3,1.5c0.6,0,1.2,0,1.9,0s1.3,0,1.9-0.1   c2.4-0.1,4.7-0.6,6.8-1.4s3.1-2.6,3.1-5.2c0-3.2-1.1-5.2-3.3-5.9s-4.9-1.1-8.1-1.1h-1.4c-0.5,0-1.1,0-1.6,0c-0.6,0-1.2,0-1.8,0.1   c-1,0.1-2,0.3-2.9,0.5s-1.7,0.6-2.4,1.1c-0.5,0.3-0.8,0.7-1,1.2s-0.4,1-0.4,1.6c-0.1,0.3-0.1,0.5-0.1,0.8s0,0.5,0,0.8   C209.9,60.7,210.6,62.8,212.1,63.7z"/>
	<path class="st4" d="M275,37.5h-15.8v21.9c0,2,0.4,3.5,1.1,4.3s2.3,1.3,4.7,1.3c2.8,0,4.4-0.6,5-1.8s0.8-2.7,0.8-4.6v-2.4h5.8   c0,3.7-0.6,6.8-1.9,9.3s-4.5,3.7-9.8,3.7c-4.6,0-7.7-0.7-9.4-2.1c-1.7-1.4-2.6-4-2.6-7.8V37.5h-5.3v-4.3h5.3v-8.6h6.3v8.6H275V37.5   L275,37.5z"/>
	<path class="st4" d="M302.3,68.9h-8.5l-13.7-35.6h6.3l11.8,31.6l11.2-31.6h6.7L302.3,68.9z"/>
	<path class="st4" d="M324.7,43.5c0-4.9,1.5-7.9,4.7-8.8s7-1.5,11.6-1.5c5.6,0,10,0.7,13.1,2.1c3.1,1.4,4.6,4.8,4.6,10.4v23.1H353   l0.3-3.7c-1.7,1.9-3.8,3.1-6.2,3.6c-2.4,0.4-4.9,0.7-7.6,0.7c-5,0-9-0.7-11.9-1.9c-2.9-1.3-4.3-4.4-4.3-9.3c0-4.7,1.5-7.7,4.5-8.9   s6.9-1.8,11.5-1.8c0.7,0,1.4,0,2.2,0c0.7,0,1.5,0.1,2.2,0.1c1,0.1,2,0.2,3,0.4s1.9,0.4,2.8,0.7c0.7,0.2,1.2,0.5,1.7,1   s0.9,0.9,1.2,1.5v-4.3c0-4.4-0.7-7.1-2.1-8.2s-4.6-1.6-9.7-1.6c-0.5,0-1.1,0-1.7,0s-1.2,0.1-1.8,0.1c-0.8,0-1.6,0.2-2.4,0.4   s-1.4,0.5-2,0.8c-0.6,0.4-1,0.8-1.3,1.3c-0.2,0.5-0.4,1.1-0.4,1.7c0,0.2-0.1,0.3-0.1,0.5s0,0.3,0,0.5s0,0.3,0,0.5s0,0.4,0.1,0.6   L324.7,43.5L324.7,43.5z M331.8,63.7c1.5,1,3.9,1.5,7.3,1.5c0.6,0,1.2,0,1.9,0c0.6,0,1.3,0,2-0.1c2.4-0.1,4.7-0.6,6.8-1.4   s3.1-2.6,3.1-5.2c0-3.2-1.1-5.2-3.3-5.9c-2.2-0.7-4.9-1.1-8-1.1h-1.5c-0.5,0-1.1,0-1.6,0c-0.6,0-1.2,0-1.8,0.1   c-1,0.1-2,0.3-2.9,0.5s-1.7,0.6-2.4,1.1c-0.5,0.3-0.8,0.7-1,1.2s-0.4,1-0.4,1.6c0,0.3-0.1,0.5-0.1,0.8s0,0.5,0,0.8   C329.6,60.7,330.3,62.8,331.8,63.7z"/>
	<path class="st4" d="M407.1,32c-0.3-3.8-1.1-6.3-2.4-7.5s-4.3-1.9-8.9-1.9h-3.2c-0.8,0-1.6,0-2.6,0s-2,0.1-3,0.1   c-1.3,0.1-2.5,0.3-3.7,0.5s-2.1,0.5-2.8,0.9c-0.9,0.5-1.6,1.2-2.1,2.1s-0.8,1.8-0.9,2.7c0,0.4-0.1,0.8-0.1,1.2c0,0.4,0,0.8,0,1.1   c0,2.8,0.5,4.9,1.6,6.4c1,1.5,3.4,2.3,7.1,2.5c1.4,0,2.8,0.1,4.2,0.2c1.4,0,2.7,0.1,4,0.1c5.6,0.1,10.4,0.8,14.4,2.1s6,5.2,6,11.7   c0,3.9-0.7,7.2-2,10c-1.3,2.8-4.6,4.4-9.9,4.9c-1.9,0.1-3.8,0.2-5.6,0.2s-3.7,0.1-5.5,0.1c-6.1,0-11.1-0.7-15.1-2s-6-5.3-6-11.7   c0-0.2,0-0.4,0-0.6s0-0.4,0.1-0.6c0-0.2,0-0.4,0-0.6c0-0.2,0-0.4,0-0.6h6.3c0,4.7,0.7,7.7,2.2,9.1s4.9,2.1,10.3,2.1h5.6   c4.8,0,8.2-0.5,10.1-1.6c1.9-1,2.8-3.7,2.8-8.1c0-3.4-0.6-5.7-1.7-6.8s-3.6-1.8-7.4-1.9c-0.9,0-1.8-0.1-2.7-0.1c-0.9,0-1.7,0-2.6,0   c-6.2-0.2-11.5-0.9-16-2.2s-6.8-5.3-6.8-12.1c0-6.2,1.8-10,5.4-11.5s8.5-2.3,14.6-2.3h1.6c6.1,0,11.1,0.6,15.1,1.9s6,5.1,6,11.6V32   H407.1L407.1,32z"/>
	<path class="st4" d="M428.6,36.8c2.1-2.8,6.9-4.2,14.4-4.2c7.8,0,12.9,1.2,15.3,3.5s3.5,6.9,3.5,13.6c0,5.8-0.7,10.6-2.1,14.2   s-6.4,5.4-14.8,5.4c-7.3,0-12.4-1-15.1-3s-4.2-6.3-4.2-13v-3.4C425.5,44.1,426.6,39.6,428.6,36.8z M431.9,53c0,0.5,0,1.1,0,1.6   c0,0.6,0,1.2,0.1,1.7c0.1,1.5,0.3,2.9,0.6,4.2s0.9,2.3,1.7,3c0.7,0.6,1.5,0.9,2.6,1.1c1,0.2,2.1,0.3,3.2,0.3c0.1,0,0.3,0,0.5,0   s0.3,0,0.5,0h2.8c3.6,0,6.3-0.4,8.2-1.3c1.9-0.9,3-3,3.2-6.3c0-0.7,0.1-1.4,0.1-2.1c0-0.7,0-1.3,0-2.1c0-0.7,0.1-1.3,0.1-2   s0-1.4,0-2c0-4.4-0.5-7.5-1.4-9.4s-3.9-2.8-8.9-2.8h-1.4c-5.3,0-8.6,0.7-9.9,2.1s-2,4.7-2,9.7V50L431.9,53L431.9,53z"/>
	<path class="st4" d="M493,37.6h-10.8v31.3H476V37.6h-6.3v-4.3h6.3V28c0-4.1,1.1-6.9,3.2-8.4s5.5-2.2,9.9-2.2c0.3,0,0.6,0,1,0   c0.3,0,0.7,0,1,0s0.6,0,1,0c0.3,0,0.6,0,1,0V22c-0.4,0-0.7-0.1-1.1-0.1s-0.8,0-1.1,0c-0.4,0-0.8,0-1.1,0s-0.7,0-1.1,0   c-2.4,0-4,0.5-5,1.4c-0.9,0.9-1.4,2.4-1.4,4.3v5.7H493V37.6L493,37.6z"/>
	<path class="st4" d="M523.5,37.5h-15.8v21.9c0,2,0.4,3.5,1.1,4.3s2.3,1.3,4.7,1.3c2.8,0,4.4-0.6,5-1.8s0.8-2.7,0.8-4.6v-2.4h5.8   c0,3.7-0.6,6.8-1.9,9.3c-1.3,2.5-4.5,3.7-9.8,3.7c-4.6,0-7.7-0.7-9.4-2.1c-1.7-1.4-2.6-4-2.6-7.8V37.5h-5.3v-4.3h5.3v-8.6h6.3v8.6   h15.8L523.5,37.5L523.5,37.5z"/>
</g>
<text transform="matrix(1 0 0 1 279.4693 117.3019)" class="st5 st6 st7">Australia Pty Ltd</text>
<g class="st8">
	<path class="st4" d="M295.8,111.3h-8.8l-2.1,6h-3.2l8.5-23.5h2.7l8.3,23.5h-3.2L295.8,111.3z M287.8,108.6h7l-3.4-10.1h-0.1   L287.8,108.6z"/>
	<path class="st4" d="M315,114.7c-0.5,0.9-1.3,1.7-2.1,2.2s-1.9,0.8-3,0.8c-1.9,0-3.4-0.6-4.4-1.8s-1.6-3.1-1.6-5.7V99.9h3.2v10.3   c0,1.9,0.3,3.1,0.8,3.8s1.4,1,2.6,1c1.1,0,2.1-0.2,2.8-0.7c0.7-0.5,1.3-1.1,1.7-1.9V99.9h3.2v17.4h-2.9L315,114.7z"/>
	<path class="st4" d="M332.8,112.6c0-0.7-0.3-1.3-0.8-1.7c-0.5-0.4-1.5-0.8-3-1.2c-2.1-0.4-3.6-1.1-4.7-1.9   c-1.1-0.8-1.7-1.9-1.7-3.2c0-1.4,0.6-2.6,1.8-3.6c1.2-1,2.8-1.5,4.7-1.5c2,0,3.6,0.5,4.8,1.6s1.8,2.3,1.8,3.8l0,0.1h-3   c0-0.8-0.3-1.4-1-2c-0.7-0.6-1.5-0.9-2.5-0.9c-1.1,0-2,0.3-2.5,0.8c-0.6,0.5-0.8,1.1-0.8,1.8c0,0.7,0.2,1.2,0.7,1.6   c0.5,0.4,1.5,0.7,3,1c2.1,0.5,3.8,1.1,4.9,1.9s1.7,1.9,1.7,3.2c0,1.5-0.6,2.8-1.9,3.8c-1.3,1-2.9,1.5-4.9,1.5c-2.2,0-4-0.6-5.3-1.7   s-1.9-2.4-1.8-3.9l0-0.1h3c0.1,1.1,0.5,2,1.3,2.5c0.8,0.5,1.7,0.8,2.8,0.8c1.1,0,2-0.2,2.7-0.7C332.5,114,332.8,113.4,332.8,112.6z   "/>
	<path class="st4" d="M344.3,95.7v4.2h3.3v2.4h-3.3v10.6c0,0.8,0.2,1.4,0.5,1.7c0.3,0.3,0.8,0.5,1.3,0.5c0.2,0,0.4,0,0.6-0.1   c0.2,0,0.4-0.1,0.6-0.2l0.4,2.2c-0.2,0.2-0.6,0.4-1,0.5c-0.5,0.1-0.9,0.2-1.4,0.2c-1.3,0-2.3-0.4-3.1-1.2c-0.8-0.8-1.1-2-1.1-3.7   v-10.6h-2.8v-2.4h2.8v-4.2H344.3z"/>
	<path class="st4" d="M359.3,102.7l-1.6-0.1c-0.8,0-1.5,0.2-2.1,0.6c-0.6,0.4-1,1-1.3,1.7v12.5H351V99.9h2.8l0.3,2.5   c0.5-0.9,1.1-1.6,1.8-2.1c0.7-0.5,1.6-0.8,2.5-0.8c0.2,0,0.5,0,0.7,0.1c0.2,0,0.4,0.1,0.5,0.1L359.3,102.7z"/>
	<path class="st4" d="M373.3,117.3c-0.1-0.5-0.2-1-0.3-1.4c-0.1-0.4-0.1-0.8-0.1-1.2c-0.6,0.8-1.4,1.5-2.3,2.1c-1,0.6-2,0.8-3.1,0.8   c-1.8,0-3.2-0.5-4.1-1.4c-1-0.9-1.4-2.2-1.4-3.8c0-1.7,0.7-3,2-3.9c1.3-0.9,3.2-1.4,5.5-1.4h3.4v-1.7c0-1-0.3-1.8-0.9-2.4   c-0.6-0.6-1.5-0.9-2.6-0.9c-1,0-1.9,0.3-2.5,0.8s-1,1.1-1,1.9l-3,0l0-0.1c-0.1-1.3,0.5-2.4,1.8-3.5c1.3-1.1,2.9-1.6,4.9-1.6   c2,0,3.6,0.5,4.8,1.5c1.2,1,1.8,2.5,1.8,4.3v8.4c0,0.6,0,1.2,0.1,1.8s0.2,1.1,0.4,1.7H373.3z M368,115c1.1,0,2.2-0.3,3.1-0.9   c0.9-0.6,1.5-1.3,1.8-2v-2.8h-3.6c-1.3,0-2.3,0.3-3.1,1c-0.8,0.6-1.2,1.4-1.2,2.3c0,0.8,0.2,1.4,0.7,1.8S367.1,115,368,115z"/>
	<path class="st4" d="M384.2,117.3H381V92.2h3.2V117.3z"/>
	<path class="st4" d="M392.5,95.4h-3.2v-3.2h3.2V95.4z M392.5,117.3h-3.2V99.9h3.2V117.3z"/>
	<path class="st4" d="M408.1,117.3c-0.1-0.5-0.2-1-0.3-1.4c-0.1-0.4-0.1-0.8-0.1-1.2c-0.6,0.8-1.4,1.5-2.3,2.1c-1,0.6-2,0.8-3.1,0.8   c-1.8,0-3.2-0.5-4.1-1.4c-1-0.9-1.4-2.2-1.4-3.8c0-1.7,0.7-3,2-3.9c1.3-0.9,3.2-1.4,5.5-1.4h3.4v-1.7c0-1-0.3-1.8-0.9-2.4   c-0.6-0.6-1.5-0.9-2.6-0.9c-1,0-1.9,0.3-2.5,0.8s-1,1.1-1,1.9l-3,0l0-0.1c-0.1-1.3,0.5-2.4,1.8-3.5c1.3-1.1,2.9-1.6,4.9-1.6   c2,0,3.6,0.5,4.8,1.5c1.2,1,1.8,2.5,1.8,4.3v8.4c0,0.6,0,1.2,0.1,1.8s0.2,1.1,0.4,1.7H408.1z M402.8,115c1.1,0,2.2-0.3,3.1-0.9   c0.9-0.6,1.5-1.3,1.8-2v-2.8h-3.6c-1.3,0-2.3,0.3-3.1,1c-0.8,0.6-1.2,1.4-1.2,2.3c0,0.8,0.2,1.4,0.7,1.8S401.9,115,402.8,115z"/>
	<path class="st4" d="M427.3,107.9v9.4h-3.2V93.8h9c2.5,0,4.4,0.6,5.8,1.9c1.4,1.3,2.1,3,2.1,5.1c0,2.1-0.7,3.8-2.1,5.1   c-1.4,1.3-3.3,1.9-5.8,1.9H427.3z M427.3,105.4h5.8c1.6,0,2.8-0.4,3.6-1.3c0.8-0.9,1.2-1.9,1.2-3.2s-0.4-2.4-1.2-3.3   c-0.8-0.9-2-1.3-3.6-1.3h-5.8V105.4z"/>
	<path class="st4" d="M449.3,95.7v4.2h3.3v2.4h-3.3v10.6c0,0.8,0.2,1.4,0.5,1.7c0.3,0.3,0.8,0.5,1.3,0.5c0.2,0,0.4,0,0.6-0.1   c0.2,0,0.4-0.1,0.6-0.2l0.4,2.2c-0.2,0.2-0.6,0.4-1,0.5c-0.5,0.1-0.9,0.2-1.4,0.2c-1.3,0-2.3-0.4-3.1-1.2c-0.8-0.8-1.1-2-1.1-3.7   v-10.6h-2.8v-2.4h2.8v-4.2H449.3z"/>
	<path class="st4" d="M461.4,110.8l0.6,2.2h0.1l4.3-13.2h3.5l-7.3,20.1c-0.4,1.2-1.1,2.2-1.9,3.1c-0.8,0.9-1.9,1.3-3.3,1.3   c-0.3,0-0.6,0-1-0.1c-0.4-0.1-0.7-0.1-0.9-0.2l0.3-2.5c-0.1,0,0.1,0,0.6,0c0.4,0,0.7,0,0.8,0c0.7,0,1.2-0.3,1.7-0.9   c0.4-0.6,0.8-1.3,1.1-2l0.8-1.8l-6.5-17.1h3.5L461.4,110.8z"/>
	<path class="st4" d="M484.4,114.8h11.4v2.5h-14.6V93.8h3.2V114.8z"/>
	<path class="st4" d="M503.4,95.7v4.2h3.3v2.4h-3.3v10.6c0,0.8,0.2,1.4,0.5,1.7c0.3,0.3,0.8,0.5,1.3,0.5c0.2,0,0.4,0,0.6-0.1   c0.2,0,0.4-0.1,0.6-0.2l0.4,2.2c-0.2,0.2-0.6,0.4-1,0.5c-0.5,0.1-0.9,0.2-1.4,0.2c-1.3,0-2.3-0.4-3.1-1.2c-0.8-0.8-1.1-2-1.1-3.7   v-10.6h-2.8v-2.4h2.8v-4.2H503.4z"/>
	<path class="st4" d="M509.4,108.9c0-2.8,0.6-5.1,1.8-6.8c1.2-1.7,2.9-2.6,5-2.6c1,0,1.9,0.2,2.7,0.6c0.8,0.4,1.5,0.9,2,1.6v-9.6   h3.2v25.1h-2.4l-0.5-2.2c-0.6,0.8-1.3,1.5-2.1,1.9c-0.8,0.4-1.8,0.6-2.9,0.6c-2.1,0-3.8-0.8-5-2.3c-1.2-1.5-1.8-3.6-1.8-6.1V108.9z    M512.5,109.2c0,1.8,0.4,3.2,1.1,4.2c0.7,1.1,1.8,1.6,3.4,1.6c0.9,0,1.7-0.2,2.4-0.6c0.6-0.4,1.2-1,1.6-1.8v-8.1   c-0.4-0.7-0.9-1.3-1.6-1.7c-0.7-0.4-1.4-0.6-2.3-0.6c-1.5,0-2.7,0.6-3.4,1.9c-0.7,1.3-1.1,2.9-1.1,4.9V109.2z"/>
</g>
</svg>